<?xml version="1.0" standalone="no"?>
<!DOCTYPE svg PUBLIC "-//W3C//DTD SVG 1.1//EN" "http://www.w3.org/Graphics/SVG/1.1/DTD/svg11.dtd" >
<svg xmlns="http://www.w3.org/2000/svg">
<defs>
  <font id="Icons" horiz-adv-x="1229">
    <font-face font-family="Icons"
      units-per-em="1024" ascent="1024"
      descent="0" />
    <missing-glyph horiz-adv-x="0" />
    <glyph glyph-name="arm"
      unicode="&#xE001;"
      horiz-adv-x="975" d="M-0.119 853.333H975.119V755.809H-0.119V853.333zM-0.119 560.762H975.119V463.2380000000001H-0.119V560.7620000000001zM-0.119 268.1910000000001H975.119V170.667H-0.119V268.1910000000001zM828.833 999.619V24.381H731.309V999.619H828.833zM243.691 999.619V24.381H146.167V999.619H243.691z" />
    <glyph glyph-name="arr-b"
      unicode="&#xE002;"
      horiz-adv-x="1024" d="M105.387 840.39C104.511 840.4169999999999 103.479 840.432 102.445 840.432C74.142 840.432 48.522 828.95 29.986 810.39L29.985 810.389C11.458 791.8589999999999 0 766.261 0 737.986S11.459 684.114 29.985 665.583L512 183.568L994.015 665.583C1012.542 684.1129999999999 1024 709.711 1024 737.986S1012.541 791.858 994.015 810.389V810.389C975.485 828.9159999999999 949.887 840.374 921.612 840.374S867.74 828.915 849.209 810.389L511.999 473.1790000000001L174.789 810.3890000000001C156.957 828.2470000000001 132.569 839.5520000000001 105.543 840.3860000000001L105.387 840.3900000000001z" />
    <glyph glyph-name="arr-l"
      unicode="&#xE003;"
      horiz-adv-x="1024" d="M744.429 1023.971C745.055 1023.99 745.792 1024.001 746.531 1024.001C766.747 1024.001 785.0459999999999 1015.8 798.285 1002.543L798.286 1002.542C811.5189999999999 989.306 819.704 971.024 819.704 950.829S811.519 912.351 798.286 899.116L411.1499999999999 511.98L798.286 124.8440000000001C811.5189999999999 111.6080000000001 819.704 93.326 819.704 73.1310000000001S811.519 34.6530000000001 798.286 21.4180000000001V21.4180000000001C785.05 8.1850000000002 766.7679999999999 1e-13 746.573 1e-13S708.095 8.1850000000001 694.86 21.4180000000001L204.298 511.9800000000001L694.86 1002.5420000000001C707.597 1015.2970000000003 725.015 1023.3720000000002 744.319 1023.9680000000002L744.4309999999999 1023.9710000000002z" />
    <glyph glyph-name="arr-l1"
      unicode="&#xE004;"
      horiz-adv-x="1024" d="M741.001 1023.958C740.124 1023.985 739.093 1024 738.059 1024C709.7579999999999 1024 684.1379999999999 1012.518 665.6039999999999 993.96L183.6159999999999 511.972L665.603 29.9849999999999C684.1329999999999 11.4589999999999 709.7289999999999 0.0009999999999 738.001 0.0009999999999S791.87 11.4589999999998 810.399 29.9849999999999V29.9849999999999C828.925 48.5149999999999 840.383 74.1109999999999 840.383 102.3829999999999S828.9250000000001 156.252 810.399 174.781L473.208 511.972L810.399 849.163C828.925 867.693 840.383 893.289 840.383 921.561S828.9250000000001 975.43 810.399 993.959V993.959C792.568 1011.816 768.181 1023.1199999999998 741.157 1023.954L741.0010000000001 1023.958z" />
    <glyph glyph-name="arr-r"
      unicode="&#xE005;"
      horiz-adv-x="1024" d="M279.5710000000001 1023.971C278.9450000000001 1023.99 278.2080000000001 1024.001 277.4690000000001 1024.001C257.2530000000001 1024.001 238.9540000000001 1015.8 225.7150000000001 1002.543L225.7140000000001 1002.542C212.4810000000001 989.306 204.2960000000001 971.024 204.2960000000001 950.829S212.4810000000001 912.351 225.7140000000001 899.116L612.8500000000001 511.98L225.7140000000001 124.8440000000001C212.4810000000001 111.6080000000001 204.2960000000001 93.326 204.2960000000001 73.1310000000001S212.4810000000001 34.6530000000001 225.7140000000001 21.4180000000001V21.4180000000001C238.9500000000001 8.1850000000002 257.2320000000001 1e-13 277.4270000000002 1e-13S315.9050000000002 8.1850000000001 329.1400000000002 21.4180000000001L819.7020000000002 511.9800000000001L329.1400000000002 1002.5420000000001C316.4030000000002 1015.2970000000003 298.9850000000003 1023.3720000000002 279.6810000000002 1023.9680000000002L279.5690000000002 1023.9710000000002z" />
    <glyph glyph-name="arrow-3"
      unicode="&#xE006;"
      horiz-adv-x="32" d="M0.781 3.448C-0.26 4.489 -0.26 6.178 0.781 7.219L9.562 16L0.781 24.781C-0.26 25.822 -0.26 27.511 0.781 28.552S3.511 29.593 4.552 28.552L17.104 16L4.552 3.448C3.511 2.407 1.822 2.407 0.781 3.448zM14.114 3.448C13.073 4.489 13.073 6.178 14.114 7.219L22.895 16L14.114 24.781C13.073 25.822 13.073 27.511 14.114 28.552S16.844 29.593 17.885 28.552L30.437 16L17.885 3.448C16.844 2.407 15.155 2.407 14.114 3.448z" />
    <glyph glyph-name="basket"
      unicode="&#xE007;"
      horiz-adv-x="1024" d="M414.751 356.468C329.468 356.468 259.219 286.2199999999999 259.219 200.9359999999999S329.467 45.4039999999999 414.751 45.4039999999999C500.034 45.4039999999999 570.283 115.6519999999999 570.283 200.9359999999999S500.035 356.468 414.751 356.468zM414.751 252.78C443.998 252.78 466.594 230.183 466.594 200.937S443.997 149.0940000000001 414.751 149.0940000000001C385.504 149.0940000000001 362.908 171.691 362.908 200.937S385.505 252.78 414.751 252.78zM829.505 356.468C744.222 356.468 673.973 286.2199999999999 673.973 200.9359999999999S744.221 45.4039999999999 829.505 45.4039999999999C914.788 45.4039999999999 985.037 115.6519999999999 985.037 200.9359999999999S914.789 356.468 829.505 356.468zM829.505 252.78C858.752 252.78 881.348 230.183 881.348 200.937S858.751 149.0940000000001 829.505 149.0940000000001C800.258 149.0940000000001 777.662 171.691 777.662 200.937S800.259 252.78 829.505 252.78zM336.985 512L287.5 496.535L287.932 495.151L288.4410000000001 493.7969999999999zM218.744 890.373L169.259 874.908zM51.843 978.596C23.21 978.596 0 955.384 0 926.753S23.212 874.91 51.843 874.91zM868.718 543.904L916.575 523.9649999999999zM970.079 787.172L1017.936 767.233zM402.136 338.266L450.679 356.468zM386.4700000000001 527.4639999999999L268.228 905.834L169.26 874.906L287.502 496.533zM169.261 978.596H51.845V874.908H169.261zM336.985 460.1559999999999H820.861V563.8439999999999H336.985zM916.576 523.966L1017.937 767.234L922.227 807.113L820.862 563.845zM946.153 874.908H259.2200000000001V771.22H946.153zM288.442 493.797L353.593 320.062L450.679 356.466L385.528 530.201zM450.679 252.78H829.5029999999999V356.468H450.6789999999999zM1017.936 767.233C1039.28 818.456 1001.646 874.908 946.152 874.908V771.22C927.654 771.22 915.108 790.039 922.226 807.111zM820.861 460.1559999999999C862.72 460.1559999999999 900.473 485.3259999999999 916.575 523.9659999999999L820.8610000000001 563.845zM353.593 320.062C368.7700000000001 279.588 407.4580000000001 252.779 450.679 252.779V356.467zM268.228 905.836C254.701 949.123 214.611 978.596 169.26 978.596V874.908z" />
    <glyph glyph-name="basket1"
      unicode="&#xE008;"
      horiz-adv-x="1024" d="M151.055 713.462C54.078 713.462 -18.956 620.082 4.375 525.9549999999999L91.832 173.371C108.478 106.213 169.322 58.663 238.512 58.663H785.489C854.678 58.663 915.526 106.211 932.169 173.371L1019.626 525.9549999999999C1042.9540000000002 620.081 969.9230000000002 713.462 872.9460000000001 713.462H151.0540000000001zM151.055 612.7239999999999H872.9470000000001C906.8790000000002 612.7239999999999 930.0040000000002 583.19 921.8400000000001 550.255L834.3830000000002 197.6710000000001C828.7530000000002 174.9530000000001 808.8980000000001 159.4020000000001 785.4900000000001 159.4020000000001H238.5130000000002C215.1010000000002 159.4020000000001 195.2510000000002 174.9490000000001 189.6200000000002 197.6710000000001L102.1630000000002 550.2550000000001C94.0000000000002 583.1880000000001 117.1260000000002 612.724 151.0560000000002 612.724zM361.976 965.308C361.662 965.315 361.29 965.319 360.918 965.319C343.927 965.319 328.902 956.907 319.779 944.019L319.673 943.862L143.381 692.0160000000001C137.669 683.9590000000001 134.251 673.927 134.251 663.097C134.251 646.119 142.651 631.104 155.522 621.9780000000001L155.679 621.874C163.736 616.162 173.768 612.7440000000001 184.599 612.7440000000001C201.577 612.7440000000001 216.592 621.144 225.718 634.0150000000001L225.822 634.172L402.1140000000001 886.018C407.826 894.075 411.2440000000001 904.107 411.2440000000001 914.9370000000002C411.2440000000001 931.915 402.8440000000001 946.93 389.973 956.056L389.8160000000001 956.16C382.05 961.679 372.4310000000001 965.068 362.033 965.3080000000002L361.975 965.31zM664.879 965.308C664.371 965.326 663.773 965.337 663.174 965.337C652.314 965.337 642.256 961.899 634.029 956.054L634.185 956.158C621.159 946.927 612.7589999999999 931.912 612.7589999999999 914.934C612.7589999999999 904.103 616.1779999999999 894.071 621.9939999999999 885.857L621.8879999999999 886.014L798.18 634.168C807.411 621.142 822.4259999999999 612.742 839.404 612.742C850.235 612.742 860.267 616.1610000000001 868.481 621.9770000000001L868.324 621.8710000000001C881.3499999999999 631.1020000000001 889.75 646.117 889.75 663.095C889.75 673.926 886.331 683.9580000000001 880.515 692.172L880.621 692.0150000000001L704.329 943.8610000000002C695.444 956.434 681.1869999999999 964.702 664.9699999999999 965.304L664.8789999999999 965.307z" />
    <glyph glyph-name="bene"
      unicode="&#xE009;"
      horiz-adv-x="1024" d="M939.255 957.782L941.642 927.038C941.642 919.943 960.737 740.21 951.189 548.656C948.803 465.885 922.546 387.8430000000001 879.582 314.53C846.1659999999999 255.409 798.428 201.016 741.141 148.988C640.891 61.486 543.029 14.189 531.095 9.4589999999999C526.321 7.0939999999999 514.3870000000001 2.3639999999999 514.3870000000001 2.3639999999999L509.6120000000001 -0.001L504.8380000000001 2.364L492.9030000000001 7.0940000000001C480.9680000000001 11.8240000000001 380.7190000000001 59.1220000000001 282.8570000000001 146.6230000000001C225.5710000000001 198.6510000000001 177.8330000000001 253.043 144.4160000000001 312.1650000000001C101.4520000000001 387.8430000000001 77.5830000000001 465.884 72.8090000000001 546.291C63.2610000000001 740.2130000000001 82.3570000000001 919.943 82.3570000000001 927.038L84.7440000000001 957.782L113.3870000000001 967.242C120.5480000000001 969.607 282.8560000000001 1021.6350000000002 507.2250000000001 1024H516.7720000000002C743.5280000000001 1021.6350000000002 903.4490000000002 969.607 910.6100000000002 967.242L939.2530000000002 957.782z" />
    <glyph glyph-name="block"
      unicode="&#xE00A;"
      horiz-adv-x="1024" d="M460.8 460.8H563.2L657.065 1024H1024V0H0V1024H366.9340000000001L460.8 460.8zM743.813 921.6L649.948 358.4H374.054L280.187 921.6H102.4V102.4H921.6V921.6H743.813z" />
    <glyph glyph-name="brych"
      unicode="&#xE00B;"
      horiz-adv-x="1024" d="M358.4 307.2000000000001C414.954 307.2000000000001 460.8 261.356 460.8 204.8000000000001S414.954 102.4000000000001 358.4 102.4000000000001H204.8C148.246 102.4000000000001 102.4 148.2440000000002 102.4 204.8000000000001S148.246 307.2000000000001 204.8 307.2000000000001H358.4zM204.8 409.6C91.692 409.6 0 317.9060000000001 0 204.8S91.692 0 204.8 0H358.4C471.508 0 563.2 91.694 563.2 204.8S471.508 409.5999999999999 358.4000000000001 409.5999999999999H204.8000000000001zM819.2 614.4C875.7560000000001 614.4 921.6 568.554 921.6 512V204.8C921.6 148.2439999999999 875.756 102.4 819.2 102.4H665.6C609.044 102.4 563.2 148.244 563.2 204.8V512C563.2 568.554 609.0440000000001 614.4 665.6 614.4H819.2zM665.6 716.8C552.494 716.8 460.8 625.108 460.8 512V204.8C460.8 91.694 552.494 0 665.6 0H819.2C932.306 0 1024 91.694 1024 204.8V512C1024 625.108 932.306 716.8 819.2 716.8H665.6zM819.2 921.6C875.7560000000001 921.6 921.6 875.754 921.6 819.2S875.756 716.8 819.2 716.8H665.6C609.044 716.8 563.2 762.646 563.2 819.1999999999999S609.0440000000001 921.6 665.6 921.6H819.2zM665.6 1024C552.494 1024 460.8 932.308 460.8 819.2S552.494 614.4 665.6 614.4H819.2C932.306 614.4 1024 706.092 1024 819.2S932.306 1024 819.2 1024H665.6zM358.4 921.6C414.954 921.6 460.8 875.754 460.8 819.2V512C460.8 455.444 414.954 409.6 358.4 409.6H204.8C148.246 409.6 102.4 455.4440000000001 102.4 512V819.2C102.4 875.754 148.246 921.6 204.8 921.6H358.4zM204.8 1024C91.692 1024 0 932.308 0 819.2V512C0 398.894 91.692 307.2000000000001 204.8 307.2000000000001H358.4C471.508 307.2000000000001 563.2 398.894 563.2 512V819.2C563.2 932.308 471.508 1024 358.4000000000001 1024H204.8000000000001z" />
    <glyph glyph-name="ch"
      unicode="&#xE00C;"
      horiz-adv-x="1229" d="M1126.96 995.857C1126.833 995.858 1126.683 995.858 1126.532 995.858C1097.364 995.858 1071.043 983.664 1052.3899999999999 964.094L443.8799999999999 324.9780000000001L176.6489999999999 605.6110000000001C157.9559999999999 625.238 131.6239999999999 637.4440000000001 102.4409999999999 637.4440000000001C75.0489999999999 637.4440000000001 50.1679999999999 626.69 31.7909999999999 609.173L31.8319999999999 609.212C12.2049999999999 590.519 -0.0010000000001 564.1870000000001 -0.0010000000001 535.004C-0.0010000000001 507.612 10.7529999999999 482.731 28.2699999999999 464.354L28.2309999999999 464.3950000000001L443.8799999999999 28.1440000000001L1200.768 822.8370000000001C1218.246 841.1730000000001 1229 866.0530000000001 1229 893.4460000000001C1229 922.628 1216.794 948.96 1197.209 967.6150000000002L1197.1670000000001 967.6540000000002C1178.9220000000003 985.032 1154.2030000000002 995.7550000000002 1126.979 995.857H1126.959z" />
    <glyph glyph-name="cher"
      unicode="&#xE00D;"
      horiz-adv-x="1024" d="M451.212 563.2H214.388L116.643 742.4L214.388 921.6H451.212L548.956 742.4L451.212 563.2zM153.6 460.8H512L665.6 742.4L512 1024H153.6L0 742.4L153.6 460.8zM451.212 102.4H214.388L116.643 281.5999999999999L214.388 460.8H451.212L548.956 281.5999999999999L451.212 102.3999999999999zM153.6 0H512L665.6 281.6L512 563.2H153.6L0 281.6L153.6 0zM807.112 307.2000000000001H626.489L524.089 512L626.489 716.8000000000001H807.1120000000001L909.512 512L807.1120000000001 307.2000000000001zM563.2 204.8H870.4000000000001L1024 512L870.4 819.2H563.2L409.6 512L563.2 204.8z" />
    <glyph glyph-name="close"
      unicode="&#xE00E;"
      horiz-adv-x="1024" d="M105.412 1023.958C104.535 1023.984 103.504 1024 102.47 1024C74.169 1024 48.549 1012.519 30.015 993.96L30.014 993.959C11.489 975.429 0.03 949.834 0.03 921.561S11.489 867.692 30.014 849.163L849.192 29.985C867.722 11.46 893.317 0.001 921.59 0.001S975.459 11.4599999999999 993.988 29.985V29.985C1012.513 48.515 1023.972 74.11 1023.972 102.383S1012.5130000000001 156.2520000000001 993.988 174.7810000000001L174.8090000000001 993.96C156.9790000000001 1011.817 132.5920000000001 1023.122 105.5670000000001 1023.956L105.4110000000001 1023.96zM924.59 1023.958C923.713 1023.984 922.682 1024 921.648 1024C893.347 1024 867.727 1012.519 849.193 993.96L30.0119999999999 174.779C11.4869999999999 156.249 0.0279999999999 130.654 0.0279999999999 102.381S11.4869999999999 48.5119999999999 30.0119999999999 29.983V29.983C48.5419999999999 11.458 74.1369999999999 -0.001 102.4099999999999 -0.001S156.279 11.458 174.8079999999999 29.9830000000001L993.9859999999998 849.1610000000001C1012.5109999999999 867.691 1023.97 893.2860000000001 1023.97 921.559S1012.511 975.4280000000002 993.9859999999998 993.9570000000002V993.9570000000002C976.1559999999998 1011.814 951.7689999999998 1023.119 924.744 1023.953L924.588 1023.957z" />
    <glyph glyph-name="comparison"
      unicode="&#xE00F;"
      horiz-adv-x="1024" d="M170.667 1024C77.084 1024 0 946.916 0 853.333V170.666C0 77.0819999999999 77.085 -0.001 170.667 -0.001H284.444C378.0250000000001 -0.001 455.111 77.082 455.111 170.6660000000001V853.3330000000001C455.111 946.916 378.027 1024 284.444 1024H170.667zM170.667 910.223H284.444C316.5370000000001 910.223 341.3330000000001 885.427 341.3330000000001 853.3340000000001V170.6669999999999C341.3330000000001 138.5719999999999 316.538 113.7779999999999 284.444 113.7779999999999H170.667C138.574 113.7779999999999 113.778 138.5709999999999 113.778 170.6669999999999V853.334C113.778 885.4269999999999 138.574 910.223 170.667 910.223zM739.556 625.777C645.9730000000001 625.777 568.889 548.693 568.889 455.11V170.666C568.889 77.083 645.973 -0.001 739.556 -0.001H853.3330000000001C946.916 -0.001 1024 77.0830000000001 1024 170.6660000000001V455.1100000000001C1024 548.6930000000001 946.916 625.7770000000002 853.333 625.7770000000002H739.5559999999999zM739.556 512H853.3330000000001C885.4290000000001 512 910.222 487.208 910.222 455.111V170.6669999999999C910.222 138.5709999999999 885.4300000000001 113.7779999999999 853.3330000000001 113.7779999999999H739.556C707.46 113.7779999999999 682.667 138.5699999999999 682.667 170.6669999999999V455.1109999999999C682.667 487.2069999999999 707.4590000000001 511.9999999999999 739.556 511.9999999999999z" />
    <glyph glyph-name="ctroy-smes"
      unicode="&#xE010;"
      horiz-adv-x="1024" d="M716.8 921.6C773.356 921.6 819.1999999999999 875.754 819.1999999999999 819.2V204.8C819.1999999999999 148.2439999999999 773.3559999999999 102.4 716.8 102.4H307.2C250.646 102.4 204.7999999999999 148.244 204.7999999999999 204.8V819.1999999999999C204.7999999999999 875.7539999999999 250.646 921.6 307.2 921.6H716.8zM307.2 1024C194.092 1024 102.4 932.308 102.4 819.2V204.8C102.4 91.694 194.092 0 307.2 0H716.8C829.906 0 921.6 91.694 921.6 204.8V819.1999999999999C921.6 932.308 829.906 1024 716.8 1024H307.2zM716.8 921.6H307.2C250.646 921.6 204.7999999999999 875.754 204.7999999999999 819.2V792.058C204.7999999999999 753.343 226.6739999999999 717.9490000000001 261.303 700.635L279.173 691.7C310.622 675.9749999999999 348.737 683.673 371.6189999999999 710.3689999999999C433.0979999999999 782.095 526.459 818.1899999999999 620.2009999999999 806.472L781.8849999999999 786.261C801.6989999999998 783.784 819.1999999999998 799.233 819.1999999999998 819.1999999999999C819.1999999999998 875.7539999999999 773.3559999999998 921.6 716.7999999999998 921.6zM233.378 600.111L215.508 609.046C146.188 643.706 102.4 714.556 102.4 792.058V819.2C102.4 932.308 194.092 1024 307.2 1024H716.8C829.906 1024 921.6 932.308 921.6 819.2C921.6 737.639 850.1149999999999 674.535 769.1879999999999 684.652L607.4979999999998 704.863C547.8649999999998 712.317 488.4749999999998 689.356 449.3669999999999 643.7280000000001C395.9049999999999 581.356 306.8539999999998 563.373 233.3779999999999 600.111zM307.2 460.8H716.8V358.4H307.2V460.8z" />
    <glyph glyph-name="deliv"
      unicode="&#xE011;"
      horiz-adv-x="1024" d="M768 192C732.656 192 704 220.656 704 256C704 291.3440000000001 732.656 320 768 320C803.344 320 832 291.3440000000001 832 256C832 220.656 803.344 192 768 192zM768 64C868.76 64 951.392 141.616 959.368 240.328C959.792 245.496 960 250.728 960 256C960 312.8640000000001 935.28 363.952 896 399.112C862.032 429.512 817.176 448 768 448C684.4 448 613.28 394.576 586.928 320C579.848 299.9840000000001 576 278.4400000000001 576 256C576 233.56 579.848 212.016 586.928 192C613.288 117.424 684.408 64 768 64V64zM256 192C220.656 192 192 220.656 192 256C192 291.3440000000001 220.656 320 256 320C291.344 320 320 291.3440000000001 320 256C320 220.656 291.344 192 256 192zM256 64C339.6 64 410.7200000000001 117.424 437.072 192C444.152 212.016 448 233.56 448 256C448 278.4400000000001 444.152 299.9840000000001 437.072 320C410.712 394.576 339.6 448 256 448C206.824 448 161.968 429.512 128 399.112C88.72 363.9600000000001 64 312.8640000000001 64 256C64 250.728 64.216 245.496 64.632 240.328C72.608 141.624 155.24 64 256 64zM192 832H594.336C620.256 832 643.616 816.3679999999999 653.504 792.408L687.48 710.04C707.904 660.5360000000001 748.072 621.808 798.288 603.2080000000001L854.224 582.488C879.328 573.192 896 549.248 896 522.472V399.12C862.032 429.52 817.176 448.0080000000001 768 448.0080000000001C684.4 448.0080000000001 613.28 394.584 586.928 320.0080000000001H437.08C410.7200000000001 394.584 339.608 448.0080000000001 256.008 448.0080000000001C206.832 448.0080000000001 161.976 429.52 128.008 399.12V768.008C128.008 803.352 156.664 832.008 192.008 832.008L192 832zM959.368 240.328C999.016 275.504 1024 326.8400000000001 1024 384V522.4639999999999C1024 602.784 974 674.616 898.68 702.512L842.744 723.232C826 729.432 812.616 742.344 805.808 758.8399999999999L771.824 841.216C742.176 913.104 672.096 960 594.336 960H192C85.96 960 0 874.04 0 768V384C0 326.832 24.984 275.504 64.632 240.328C72.608 141.624 155.24 64 256 64C339.6 64 410.7200000000001 117.424 437.072 192H586.92C613.28 117.424 684.4 64 767.992 64C868.752 64 951.384 141.616 959.36 240.328H959.368zM256 192C220.656 192 192 220.656 192 256C192 291.3440000000001 220.656 320 256 320C291.344 320 320 291.3440000000001 320 256C320 220.656 291.344 192 256 192zM832 256C832 220.656 803.344 192 768 192C732.656 192 704 220.656 704 256C704 291.3440000000001 732.656 320 768 320C803.344 320 832 291.3440000000001 832 256z" />
    <glyph glyph-name="dym"
      unicode="&#xE012;"
      horiz-adv-x="1024" d="M768 716.8V102.4000000000001H256V716.8000000000001H768zM256 819.2C199.446 819.2 153.6 773.354 153.6 716.8V102.4C153.6 45.8439999999999 199.446 0 256 0H768C824.556 0 870.4 45.8440000000001 870.4 102.4V716.8C870.4 773.3539999999999 824.5559999999999 819.1999999999999 768 819.1999999999999H256zM563.2 921.6V819.2H460.8000000000001V921.6H563.2zM358.4 1024V716.8H665.5999999999999V1024H358.3999999999999zM563.2 358.4C563.2 330.122 540.278 307.2 512 307.2C483.723 307.2 460.8 330.122 460.8 358.4V409.6C460.8 437.8780000000001 483.723 460.8000000000001 512 460.8000000000001S563.2 437.8780000000001 563.2 409.6V358.4zM512 563.2C427.169 563.2 358.4 494.433 358.4 409.6V358.4C358.4 273.567 427.169 204.8 512 204.8C596.833 204.8 665.6 273.567 665.6 358.4V409.6C665.6 494.433 596.8330000000001 563.2 512 563.2z" />
    <glyph glyph-name="fas"
      unicode="&#xE013;"
      horiz-adv-x="1024" d="M409.6 0H0V409.6H307.2V307.2000000000001H102.4V102.4000000000001H307.2V358.4000000000001H409.6V1e-13zM102.4 716.8V921.6H307.2000000000001V716.8H102.4zM409.6 614.4V1024H0V614.4H409.6zM614.4 1024H1024V614.4H691.2V665.5999999999999H614.4000000000001V1024zM716.8 716.8H921.6V921.6H716.8V716.8zM716.8 102.4V307.2000000000001H921.6V102.4000000000001H716.8zM1024 0V409.6H614.4V0H1024zM409.6 409.6V614.4000000000001H614.4000000000001V409.6H409.6000000000001zM716.8 307.2000000000001V716.8000000000001H307.2V307.2000000000001H716.8z" />
    <glyph glyph-name="kam"
      unicode="&#xE014;"
      horiz-adv-x="1024" d="M563.2 512L1024 307.2000000000001L870.4 0H153.6L0 460.8L153.6 870.4L512 1024L563.2 512zM884.485 257.1470000000001L467.23 442.5930000000001L424.002 874.8780000000002L234.127 793.5030000000002L108.609 458.787L227.406 102.3990000000001H807.1120000000001L884.4850000000001 257.1460000000002zM768 716.8L1024 665.6V307.2000000000001L870.4 0H153.6L0 460.8L153.6 870.4L512 1024L768 716.8zM921.6 581.652L712.474 623.477L482.192 899.817L234.128 793.5039999999999L108.61 458.788L227.407 102.4000000000001H807.113L921.6010000000002 331.3720000000001V581.652z" />
    <glyph glyph-name="kirp"
      unicode="&#xE015;"
      horiz-adv-x="1024" d="M921.6 307.2000000000001V102.4000000000001H102.4V307.2000000000001H921.6zM0 409.6V0H1024V409.6H0zM921.6 614.4V409.5999999999999H102.4V614.3999999999999H921.6zM0 716.8V307.2000000000001H1024V716.8000000000001H0zM921.6 921.6V716.8H102.4V921.6H921.6zM0 1024V614.4H1024V1024H0zM921.6 307.2000000000001V102.4000000000001H716.8V307.2000000000001H921.6zM614.4 409.6V0H1024V409.6H614.4zM307.2 614.4V409.5999999999999H102.4V614.3999999999999H307.2zM0 716.8V307.2000000000001H409.6V716.8000000000001H0zM921.6 921.6V716.8H716.8V921.6H921.6zM614.4 1024V614.4H1024V1024H614.4z" />
    <glyph glyph-name="kley"
      unicode="&#xE016;"
      horiz-adv-x="1024" d="M819.133 818.643C819.072 818.34 818.918 817.7090000000001 818.508 816.711C817.6790000000001 814.6890000000001 815.702 810.9 811.2320000000001 805.616C801.893 794.575 784.3620000000001 780.2370000000001 755.8340000000001 765.973C698.72 737.417 612.6580000000001 716.799 511.999 716.799C411.341 716.799 325.2750000000001 737.417 268.163 765.973C239.635 780.2370000000001 222.107 794.575 212.767 805.616C208.298 810.899 206.319 814.6890000000001 205.491 816.711C205.083 817.7080000000001 204.926 818.34 204.864 818.643C204.805 818.933 204.798 819.092 204.798 819.2S204.805 819.467 204.864 819.757C204.925 820.06 205.083 820.691 205.491 821.689C206.318 823.711 208.298 827.5 212.767 832.784C222.107 843.8249999999999 239.635 858.163 268.163 872.4269999999999C325.276 900.983 411.342 921.601 511.999 921.601C612.658 921.601 698.72 900.983 755.8340000000001 872.4269999999999C784.363 858.163 801.894 843.8249999999999 811.2320000000001 832.784C815.7020000000001 827.501 817.6780000000001 823.711 818.508 821.689C818.918 820.692 819.071 820.06 819.133 819.757C819.1940000000001 819.467 819.2 819.308 819.2 819.2S819.195 818.933 819.133 818.643zM512 614.4C634.337 614.4 744.146 641.2159999999999 819.2 683.7339999999999C882.9290000000001 719.837 921.6 767.26 921.6 819.2C921.6 932.308 738.217 1024 512 1024S102.4 932.308 102.4 819.2C102.4 767.26 141.07 719.837 204.8 683.7339999999999C279.854 641.216 389.664 614.4 512 614.4zM307.2 460.8H716.8V358.4H307.2V460.8zM819.2 683.7339999999999V204.8C819.2 148.2439999999999 773.356 102.4 716.8000000000001 102.4H307.2000000000001C250.6460000000001 102.4 204.8000000000001 148.244 204.8000000000001 204.8V683.7339999999999C279.8540000000001 641.216 389.6640000000001 614.4 512 614.4S744.146 641.2159999999999 819.2 683.7339999999999zM921.6 819.2C921.6 932.308 738.217 1024 512 1024S102.4 932.308 102.4 819.2V204.8C102.4 91.694 194.092 0 307.2 0H716.8C829.906 0 921.6 91.694 921.6 204.8V819.1999999999999zM819.133 819.7570000000001C819.1940000000001 819.467 819.2 819.308 819.2 819.2S819.195 818.933 819.133 818.643C819.072 818.34 818.918 817.7090000000001 818.508 816.711C817.6790000000001 814.6890000000001 815.702 810.9000000000001 811.2320000000001 805.616C801.893 794.575 784.3620000000001 780.2370000000001 755.8340000000001 765.9730000000001C698.72 737.4170000000001 612.6580000000001 716.7990000000001 511.999 716.7990000000001C411.341 716.7990000000001 325.2750000000001 737.4170000000001 268.163 765.9730000000001C239.635 780.2370000000001 222.107 794.575 212.767 805.6160000000001C208.298 810.8990000000001 206.319 814.6890000000001 205.491 816.711C205.083 817.7080000000001 204.926 818.34 204.864 818.643C204.805 818.933 204.798 819.0920000000001 204.798 819.2S204.805 819.4670000000001 204.864 819.7570000000001C204.925 820.0600000000001 205.083 820.691 205.491 821.6890000000001C206.318 823.711 208.298 827.5 212.767 832.784C222.107 843.825 239.635 858.163 268.163 872.427C325.276 900.983 411.342 921.601 511.999 921.601C612.658 921.601 698.72 900.983 755.8340000000001 872.427C784.363 858.163 801.894 843.825 811.2320000000001 832.784C815.7020000000001 827.501 817.6780000000001 823.711 818.508 821.6890000000001C818.918 820.692 819.071 820.0600000000001 819.133 819.7570000000001z" />
    <glyph glyph-name="krov"
      unicode="&#xE017;"
      horiz-adv-x="1024" d="M512 985.6L972.8 640V5.069L511.9999999999999 321.8689999999999L51.1999999999999 5.069V640L511.9999999999999 985.6zM563.2 410.9310000000001L870.4000000000001 199.731V588.8L512.0000000000001 857.6L153.6000000000001 588.8V199.731L460.8000000000001 410.9310000000001V614.4000000000001H563.2000000000002V410.9310000000001z" />
    <glyph glyph-name="like"
      unicode="&#xE018;"
      horiz-adv-x="1024" d="M284.2 973.103C210.463 973.103 136.703 944.816 81.18 888.264C-27.061 778.0219999999999 -27.059 599.912 81.18 489.668L511.999 50.896L942.818 489.6679999999999C1051.06 599.9119999999999 1051.062 778.0229999999999 942.818 888.2639999999999C831.773 1001.3669999999998 647.823 1001.3669999999998 536.777 888.2639999999999L511.999 862.9759999999999L487.221 888.2639999999999C431.699 944.816 357.938 973.1029999999998 284.201 973.1029999999998zM284.2 869.4010000000001C330.686 869.4010000000001 377.163 851.329 412.681 815.154L437.459 789.866L511.998 714.001L611.3149999999999 815.154C682.3509999999999 887.506 797.241 887.506 868.2769999999999 815.154C937.458 744.697 937.458 633.342 868.2769999999999 562.883L511.9979999999999 199.9760000000001L155.7189999999999 562.883C86.5409999999999 633.3420000000001 86.5409999999999 744.6960000000001 155.7189999999999 815.1540000000001C191.237 851.3300000000002 237.714 869.4010000000001 284.2 869.4010000000001z" />
    <glyph glyph-name="login"
      unicode="&#xE019;"
      horiz-adv-x="1024" d="M512 1024C355.5800000000001 1024 227.556 895.976 227.556 739.556S355.58 455.112 512 455.112C668.42 455.112 796.444 583.136 796.444 739.556S668.42 1024 511.9999999999999 1024zM512 910.223C606.931 910.223 682.667 834.487 682.667 739.556S606.931 568.889 512 568.889C417.069 568.889 341.333 644.625 341.333 739.556S417.069 910.223 512 910.223zM284.444 398.223C190.863 398.223 113.777 321.14 113.777 227.556V170.6669999999999C113.777 77.0829999999999 190.862 0 284.444 0H739.5550000000001C833.138 0 910.222 77.0840000000001 910.222 170.667V227.5560000000001C910.222 321.139 833.1380000000001 398.2230000000001 739.5550000000001 398.2230000000001H284.4440000000001zM284.444 284.444H739.5550000000001C771.6510000000001 284.444 796.4440000000001 259.652 796.4440000000001 227.555V170.666C796.4440000000001 138.5699999999999 771.652 113.7769999999999 739.5550000000001 113.7769999999999H284.4440000000001C252.3510000000001 113.7769999999999 227.5550000000001 138.5699999999999 227.5550000000001 170.666V227.555C227.5550000000001 259.65 252.3500000000001 284.444 284.4440000000001 284.444z" />
    <glyph glyph-name="map"
      unicode="&#xE01A;"
      horiz-adv-x="1024" d="M512 85.332C512 85.332 85.333 255.999 85.333 614.399C85.333 840.615 276.3580000000001 1023.999 512 1023.999S938.667 840.615 938.667 614.399C938.667 255.999 511.9999999999999 85.332 511.9999999999999 85.332zM512 341.332C653.385 341.332 768 455.947 768 597.332S653.385 853.332 512 853.332C370.615 853.332 256 738.717 256 597.332S370.615 341.332 512 341.332zM426.667 170.6660000000001H597.334V85.3330000000001C597.334 38.2030000000001 559.1289999999999 1e-13 512.001 1e-13S426.668 38.2040000000001 426.668 85.3330000000001V170.6660000000001z" />
    <glyph glyph-name="menu"
      unicode="&#xE01B;"
      horiz-adv-x="1024" d="M64.001 960H960C995.455 960 1024 931.457 1024 896S995.457 832 960 832H64.001C28.546 832 0.001 860.543 0.001 896S28.544 960 64.001 960zM64.001 576H640.001C675.456 576 704.001 547.457 704.001 512S675.458 448 640.001 448H64.001C28.546 448 0.001 476.543 0.001 512S28.544 576 64.001 576zM64.001 192.001H960C995.455 192.001 1024 163.458 1024 128.001S995.457 64.001 960 64.001H64.001C28.546 64.001 0.001 92.544 0.001 128.001S28.544 192.001 64.001 192.001z" />
    <glyph glyph-name="minus"
      unicode="&#xE01C;"
      horiz-adv-x="1024" d="M213.333 554.6669999999999H810.666V469.333H213.333V554.6669999999999z" />
    <glyph glyph-name="naves"
      unicode="&#xE01D;"
      horiz-adv-x="1024" d="M102.4 102.4V204.8H358.4V102.4H102.4zM460.8 0V307.2000000000001H0V0H460.8zM819.2 102.4V921.6H921.6V102.4H819.2zM1024 0V1024H716.8V0H1024zM260.765 307.2000000000001L716.8 730.6610000000001V307.2000000000001H260.765zM819.2 204.8V870.4H716.8000000000001L1e-13 204.8H819.2000000000002z" />
    <glyph glyph-name="ok3"
      unicode="&#xE01E;"
      horiz-adv-x="1024" d="M902.541 831.91C929.912 805.8389999999999 930.939 762.524 904.868 735.153L399.122 204.158L121.513 495.658C95.4421 523.029 96.5369 566.3430000000001 123.839 592.414C151.142 618.485 194.525 617.39 220.596 590.088L399.122 402.597L805.785 829.583C831.856 856.954 875.171 857.98 902.541 831.91V831.91z" />
    <glyph glyph-name="payment"
      unicode="&#xE01F;"
      horiz-adv-x="1024" d="M204.8 972.801C92.299 972.801 0 880.5029999999999 0 768.001V256C0 143.496 92.299 51.2 204.8 51.2H716.8009999999999C829.3029999999999 51.2 921.6009999999998 143.4980000000001 921.6009999999998 256V365.7000000000001C921.6009999999998 393.9770000000001 898.6769999999999 416.9000000000001 870.4009999999998 416.9000000000001V416.9000000000001C842.1239999999998 416.9000000000001 819.2009999999998 393.9760000000001 819.2009999999998 365.7000000000001V365.7000000000001V256C819.2009999999998 198.836 773.9659999999998 153.6 716.8009999999998 153.6H204.7999999999999C147.6389999999999 153.6 102.3999999999998 198.836 102.3999999999998 256V768.001C102.3999999999998 825.161 147.6399999999999 870.401 204.7999999999999 870.401H716.8009999999998C773.9639999999998 870.401 819.2009999999998 825.162 819.2009999999998 768.001V658.3009999999999C819.2009999999998 630.024 842.1249999999998 607.101 870.4009999999998 607.101V607.101C898.6779999999999 607.101 921.6009999999998 630.025 921.6009999999998 658.3009999999999V658.3009999999999V768.001C921.6009999999998 880.501 829.3039999999999 972.801 716.8009999999999 972.801H204.8zM614.4 665.601C530.1759999999999 665.601 460.8 596.225 460.8 512.001S530.1759999999999 358.401 614.4 358.401H870.4C954.624 358.401 1024 427.777 1024 512.001S954.624 665.601 870.4 665.601H614.4zM614.4 563.201H870.4C899.286 563.201 921.6 540.888 921.6 512.001S899.287 460.801 870.4 460.801H614.4C585.514 460.801 563.1999999999999 483.114 563.1999999999999 512.001S585.5129999999999 563.201 614.4 563.201z" />
    <glyph glyph-name="phone"
      unicode="&#xE020;"
      horiz-adv-x="1024" d="M494.882 494.995L414.504 414.505C453.972 375.035 503.194 357.019 548.172 352.112S634.982 352.605 673.403 356.1089999999999C750.243 363.117 804.223 367.839 861.582 310.4799999999999C890.264 281.7979999999999 911.129 240.7779999999999 910.209 212.2269999999999S897.765 154.1039999999998 818.728 122.3009999999998C775.9559999999999 105.0899999999998 680.1089999999999 125.0649999999998 584.4759999999999 174.3689999999998S393.9399999999999 295.8499999999998 344.8949999999999 344.8959999999998L264.5169999999999 264.5179999999997C325.0899999999999 203.9439999999997 424.3869999999999 128.9739999999997 532.2979999999999 73.3409999999997S757.1689999999999 -25.0050000000003 861.1389999999999 16.8309999999997C965.532 58.8379999999996 1021.4659999999998 133.2809999999997 1023.8949999999998 208.5629999999997S986.3629999999998 346.4569999999997 941.9619999999998 390.8579999999996C853.1629999999999 479.6569999999996 743.3979999999999 476.6739999999996 663.0799999999999 469.3499999999996C622.9209999999999 465.6879999999995 587.814 462.1629999999996 560.608 465.1309999999995S515.107 474.7719999999995 494.884 494.9959999999995zM208.562 1023.895C133.28 1021.466 58.837 965.532 16.83 861.139C-25.008 757.167 17.705 640.32 73.34 532.408S203.944 325.0900000000001 264.517 264.5170000000001L344.895 344.8950000000001C295.85 393.9420000000001 223.783 488.8410000000001 174.479 584.4760000000001S105.089 775.9580000000001 122.299 818.7280000000001C154.102 897.7630000000001 183.674 909.3990000000002 212.225 910.3200000000002S281.799 890.3720000000001 310.478 861.6930000000001C367.836 804.3330000000001 363.225 750.2440000000001 356.218 673.4030000000001C352.714 634.9820000000002 347.315 593.2610000000002 352.221 548.2830000000001S375.1449999999999 453.9720000000001 414.6139999999999 414.5030000000002L494.9919999999999 494.8810000000002C474.7699999999999 515.1030000000002 468.2059999999999 533.3990000000002 465.2389999999999 560.6050000000002S465.6839999999999 622.9170000000001 469.3459999999999 663.0770000000002C476.6709999999999 743.3970000000002 479.6539999999999 853.2710000000002 390.854 942.0710000000003C346.454 986.4710000000002 283.8399999999999 1026.3220000000001 208.559 1023.8930000000003z" />
    <glyph glyph-name="photo"
      unicode="&#xE021;"
      horiz-adv-x="1024" d="M59.077 748.307C26.684 748.307 0 721.624 0 689.23V177.231C0 144.837 26.683 118.154 59.077 118.154H964.923C997.317 118.154 1024 144.837 1024 177.231V689.23C1024 721.624 997.317 748.307 964.923 748.307H59.077zM59.077 708.923H964.923C976.033 708.923 984.615 700.341 984.615 689.231V177.232C984.615 166.122 976.033 157.54 964.923 157.54H59.077C47.968 157.54 39.385 166.122 39.385 177.232V689.231C39.385 700.341 47.968 708.923 59.077 708.923zM334.769 905.846C302.375 905.846 275.692 879.163 275.692 846.769V708.922H748.307V846.769C748.307 879.163 721.624 905.846 689.23 905.846H334.7680000000001zM334.769 866.462H689.231C700.341 866.462 708.923 857.88 708.923 846.77V748.308H315.077V846.77C315.077 857.88 323.659 866.462 334.769 866.462zM511.999 630.154C403.4740000000001 630.154 315.076 541.755 315.076 433.231S403.475 236.308 511.999 236.308C620.524 236.308 708.922 324.707 708.922 433.231S620.523 630.154 511.999 630.154zM511.999 590.77C599.238 590.77 669.537 520.47 669.537 433.232S599.2370000000001 275.694 511.999 275.694C424.76 275.694 354.461 345.9939999999999 354.461 433.232S424.761 590.77 511.999 590.77z" />
    <glyph glyph-name="plus"
      unicode="&#xE022;"
      horiz-adv-x="1024" d="M213.333 554.6669999999999H810.667V469.333H213.333V554.6669999999999zM554.667 810.667V213.333H469.333V810.667H554.667z" />
    <glyph glyph-name="rasprod"
      unicode="&#xE023;"
      horiz-adv-x="1024" d="M256 665.6C199.446 665.6 153.6 711.446 153.6 768S199.446 870.4000000000001 256 870.4000000000001C312.554 870.4000000000001 358.4 824.5540000000001 358.4 768S312.554 665.6 256 665.6zM256 563.2C369.108 563.2 460.8 654.892 460.8 768S369.108 972.8 256 972.8C142.892 972.8 51.2 881.108 51.2 768S142.892 563.2 256 563.2zM768 153.6C711.444 153.6 665.6 199.4440000000001 665.6 256S711.4440000000001 358.4 768 358.4C824.556 358.4 870.4 312.556 870.4 256S824.5559999999999 153.6 768 153.6zM768 51.2C881.106 51.2 972.8 142.894 972.8 256S881.106 460.8 768 460.8C654.894 460.8 563.2 369.106 563.2 256S654.894 51.2 768 51.2zM957.804 885.396L138.605 66.197L66.197 138.6040000000001L885.398 957.805L957.805 885.397z" />
    <glyph glyph-name="sale"
      unicode="&#xE024;"
      horiz-adv-x="1024" d="M428.368 964.016C466.775 1002.423 518.866 1024 573.184 1024H819.1999999999999C932.306 1024 1024 932.308 1024 819.2V573.185C1024 518.869 1002.419 466.775 964.014 428.37L608.0509999999999 72.4069999999999C528.0709999999999 -7.5730000000001 398.3999999999999 -7.5730000000001 318.421 72.4069999999999L72.406 318.4229999999999C-7.573 398.4029999999999 -7.5740000000001 528.0739999999998 72.406 608.0539999999999L428.368 964.0159999999998zM573.184 921.6C546.028 921.6 519.982 910.812 500.776 891.608L144.814 535.646C104.824 495.657 104.824 430.823 144.814 390.8300000000001L390.829 144.8140000000001C430.819 104.8270000000001 495.655 104.8270000000001 535.644 144.8140000000001L891.607 500.777C910.812 519.981 921.6 546.027 921.6 573.1850000000001V819.2C921.6 875.754 875.75 921.6 819.2 921.6H573.1840000000001zM640 563.2C597.581 563.2 563.2 597.5840000000001 563.2 640S597.581 716.8 640 716.8C682.414 716.8 716.8 682.4159999999999 716.8 640S682.414 563.2 640 563.2zM640 460.8C738.97 460.8 819.2 541.03 819.2 640S738.97 819.1999999999999 640 819.1999999999999C541.03 819.1999999999999 460.798 738.9699999999999 460.798 640S541.03 460.8 640 460.8z" />
    <glyph glyph-name="samov"
      unicode="&#xE025;"
      horiz-adv-x="1024" d="M384 192C355.568 192 331.472 210.544 323.128 236.184C322.824 237.1040000000001 322.544 238.04 322.288 238.9840000000001C320.8 244.4 320 250.1040000000001 320 255.992C320 291.336 348.656 319.992 384 319.992C419.344 319.992 448 291.336 448 255.992C448 227.264 429.072 202.952 403 194.856C402.08 194.576 401.1600000000001 194.304 400.224 194.064C395.04 192.712 389.608 191.992 384 191.992V192zM384 64C486.072 64 569.544 143.656 575.64 244.192C575.88 248.096 576 252.04 576 256C576 297.48 562.848 335.88 540.488 367.2720000000001C507.36 413.784 454.016 444.8880000000001 393.28 447.784C390.2 447.928 387.104 448.0080000000001 384 448.0080000000001C341.616 448.0080000000001 302.44 434.2720000000001 270.68 411.016C222.976 376.088 192 319.664 192 256.0080000000001C192 149.968 277.96 64.008 384 64.008V64zM437.979 716.129C419.683 784.409 460.203 854.601 528.491 872.8969999999999L652.131 906.025C720.411 924.3208 790.603 883.8009999999999 808.899 815.513L842.027 691.873C860.323 623.5930000000001 819.803 553.4010000000001 751.515 535.105L627.875 501.977C559.595 483.681 489.403 524.201 471.107 592.489L437.979 716.129V716.129zM685.259 782.385L561.619 749.2570000000001L594.747 625.617L718.379 658.745L685.251 782.385H685.259zM64 959.9998C28.656 959.9998 0 931.3438 0 896C0 860.656 28.656 832 64 832H96.768C125.032 832 149.952 813.4639999999999 158.072 786.392L270.688 411.0080000000001C222.984 376.0800000000001 192.008 319.656 192.008 256C192.008 149.96 277.968 64 384.008 64C486.08 64 569.552 143.656 575.648 244.192L849.584 322.4640000000001C883.576 332.1760000000001 903.248 367.6 893.536 401.584C883.824 435.568 848.4 455.248 814.416 445.536L540.48 367.2720000000001C507.352 413.784 454.008 444.8880000000001 393.272 447.784L280.656 823.1759999999999C256.296 904.392 181.544 960.0078 96.752 960.0078H63.984L64 959.9998zM403 194.864L400.224 194.072C395.04 192.72 389.608 192 384 192C355.568 192 331.472 210.544 323.128 236.184L322.288 238.9840000000001C320.8 244.4 320 250.1040000000001 320 255.992C320 291.336 348.656 319.992 384 319.992C419.344 319.992 448 291.336 448 255.992C448 227.264 429.072 202.952 403 194.856V194.864z" />
    <glyph glyph-name="search"
      unicode="&#xE026;"
      horiz-adv-x="1024" d="M433.727 1024C194.871 1024 0 829.129 0 590.273S194.871 156.5460000000001 433.727 156.5460000000001C672.583 156.5460000000001 867.454 351.4170000000001 867.454 590.273S672.583 1024 433.727 1024zM433.727 908.34C610.075 908.34 751.794 766.623 751.794 590.273S610.077 272.206 433.727 272.206C257.379 272.206 115.66 413.923 115.66 590.273S257.377 908.34 433.727 908.34zM734.849 370.9260000000001L653.0740000000001 289.1510000000001L942.2250000000003 0L1024.0000000000002 81.775L734.8490000000002 370.926z" />
    <glyph glyph-name="share"
      unicode="&#xE027;"
      horiz-adv-x="16" d="M13 12C13.1531 12 13.2981 12.0344 13.4278 12.09588C13.7661 12.25622 14 12.60079 14 13C14 13.55228 13.5523 14 13 14C12.832 14 12.6738 13.95859 12.5348 13.88543C12.2168 13.71802 12 13.38433 12 13C12 12.44772 12.4477 12 13 12zM13 10C14.6569 10 16 11.34315 16 13C16 14.65685 14.6569 16 13 16C11.3431 16 10 14.65685 10 13C10 12.87451 10.0077 12.75081 10.0227 12.62937C10.1088 11.93022 10.4355 11.30553 10.9174 10.84066C11.457 10.32015 12.1911 10 13 10zM13 2C13.5523 2 14 2.4477 14 3C14 3.3992 13.7661 3.7438 13.4278 3.9041C13.2981 3.9656 13.1531 4 13 4C12.4477 4 12 3.5523 12 3C12 2.6157 12.2168 2.282 12.5348 2.1146C12.6738 2.0414 12.832 2 13 2zM13 0C14.6569 0 16 1.3431 16 3C16 4.6569 14.6569 6 13 6C12.1911 6 11.457 5.6798 10.9174 5.1593C10.4355 4.6945 10.1088 4.0698 10.0227 3.3706C10.0077 3.2492 10 3.1255 10 3C10 1.3431 11.3431 0 13 0zM3 7C3.55228 7 4 7.44772 4 8C4 8.55228 3.55228 9 3 9C2.84692 9 2.70187 8.9656 2.57216 8.90412C2.55956 8.89814 2.5471 8.89191 2.53479 8.88543C2.21681 8.71802 2 8.38433 2 8C2 7.61567 2.21681 7.28198 2.5348 7.11457C2.5471 7.10809 2.55956 7.10186 2.57216 7.09589C2.70187 7.0344 2.84692 7 3 7zM3 5C3.80891 5 4.54305 5.3202 5.08261 5.8407C5.5645 6.30553 5.89119 6.93021 5.97733 7.62937C5.99229 7.75081 6 7.87451 6 8C6 8.12549 5.99229 8.24919 5.97733 8.37063C5.89119 9.06978 5.5645 9.69447 5.08261 10.15934C4.54305 10.67985 3.80891 11 3 11C1.34315 11 0 9.65685 0 8C0 6.34315 1.34315 5 3 5zM13 10C14.6569 10 16 11.34315 16 13C16 14.65685 14.6569 16 13 16C11.3431 16 10 14.65685 10 13C10 12.87451 10.0077 12.75081 10.0227 12.62937L5.08261 10.15934C4.54305 10.67985 3.80891 11 3 11C1.34315 11 0 9.65685 0 8C0 6.34315 1.34315 5 3 5C3.80891 5 4.54305 5.3202 5.08261 5.8407L10.0227 3.3706C10.0077 3.2492 10 3.1255 10 3C10 1.3431 11.3431 0 13 0C14.6569 0 16 1.3431 16 3C16 4.6569 14.6569 6 13 6C12.1911 6 11.457 5.6798 10.9174 5.1593L5.97733 7.62937C5.99229 7.75081 6 7.87451 6 8C6 8.12549 5.99229 8.24919 5.97733 8.37063L10.9174 10.84066C11.457 10.32015 12.1911 10 13 10zM14 13C14 12.60079 13.7661 12.25622 13.4278 12.09588C13.2981 12.0344 13.1531 12 13 12C12.4477 12 12 12.44772 12 13C12 13.38433 12.2168 13.71802 12.5348 13.88543C12.6738 13.95859 12.832 14 13 14C13.5523 14 14 13.55228 14 13zM2.57216 7.09589L2.5348 7.11457C2.21681 7.28198 2 7.61567 2 8C2 8.38433 2.21681 8.71802 2.53479 8.88543L2.57216 8.90412C2.70187 8.9656 2.84692 9 3 9C3.55228 9 4 8.55228 4 8C4 7.44772 3.55228 7 3 7C2.84692 7 2.70187 7.0344 2.57216 7.09589zM13.4278 3.9041C13.7661 3.7438 14 3.3992 14 3C14 2.4477 13.5523 2 13 2C12.832 2 12.6738 2.0414 12.5348 2.1146C12.2168 2.282 12 2.6157 12 3C12 3.5523 12.4477 4 13 4C13.1531 4 13.2981 3.9656 13.4278 3.9041z" />
    <glyph glyph-name="show-room"
      unicode="&#xE028;"
      horiz-adv-x="1024" d="M512 1024C291.395 1024 114.338 856.771 114.338 654.7429999999999C114.338 492.525 211.1930000000001 335.85 313.168 209.038C362.9600000000001 147.119 412.503 95.438 449.865 58.9159999999999V58.805C458.274 50.5949999999999 466.041 43.2099999999999 473.055 36.6139999999999L512 -0.001L550.945 36.614C557.9590000000001 43.2090000000001 565.725 50.5940000000001 574.1350000000001 58.8050000000001V58.9160000000001C611.4960000000001 95.4380000000001 661.0390000000001 147.1180000000001 710.8320000000001 209.038C812.8100000000001 335.851 909.6620000000001 492.5260000000001 909.6620000000001 654.7429999999999C909.6620000000001 856.771 732.6050000000001 1024 512.0000000000002 1024zM512 910.382C675.967 910.382 796.043 790.053 796.043 654.7429999999999C796.043 540.904 716.5840000000001 397.4210000000001 622.288 280.1610000000001C582.467 230.6400000000001 544.716 191.9210000000001 512 159.109C479.282 191.9210000000001 441.533 230.639 401.712 280.1610000000001C307.417 397.4220000000001 227.957 540.904 227.957 654.743C227.957 790.0540000000001 348.034 910.382 512 910.382zM512 796.764C418.549 796.764 341.574 719.789 341.574 626.338S418.549 455.912 512 455.912C605.451 455.912 682.4259999999999 532.8870000000001 682.4259999999999 626.338S605.4509999999999 796.764 511.9999999999999 796.764zM512 683.1469999999999C544.048 683.1469999999999 568.809 658.386 568.809 626.338S544.048 569.529 512 569.529C479.952 569.529 455.191 594.29 455.191 626.338S479.9520000000001 683.1469999999999 512 683.1469999999999z" />
    <glyph glyph-name="sort_max"
      unicode="&#xE029;"
      horiz-adv-x="1024" d="M832 448C832 483.328 803.328 512 768 512C732.672 512 704 483.328 704 448V320C704 284.6720000000001 732.672 256 768 256C803.328 256 832 284.6720000000001 832 320V448zM576 640C576 675.328 547.328 704 512 704C476.672 704 448 675.328 448 640V320C448 284.6720000000001 476.672 256 512 256C547.328 256 576 284.6720000000001 576 320V640zM320 768C320 803.328 291.328 832 256 832C220.672 832 192 803.328 192 768V320C192 284.6720000000001 220.672 256 256 256C291.328 256 320 284.6720000000001 320 320V768z" />
    <glyph glyph-name="sort_min"
      unicode="&#xE02A;"
      horiz-adv-x="1024" d="M192 448C192 483.328 220.672 512 256 512C291.328 512 320 483.328 320 448V320C320 284.6720000000001 291.328 256 256 256C220.672 256 192 284.6720000000001 192 320V448zM448 640C448 675.328 476.672 704 512 704C547.328 704 576 675.328 576 640V320C576 284.6720000000001 547.328 256 512 256C476.672 256 448 284.6720000000001 448 320V640zM704 768C704 803.328 732.672 832 768 832C803.328 832 832 803.328 832 768V320C832 284.6720000000001 803.328 256 768 256C732.672 256 704 284.6720000000001 704 320V768z" />
    <glyph glyph-name="stok"
      unicode="&#xE02B;"
      horiz-adv-x="1024" d="M460.8 328.4070000000001V921.6H256V144.8140000000001L266.604 134.21L460.8 328.4060000000001zM230.4 25.6L153.6 102.4V1024H563.2V358.4H870.4000000000001V0H307.2000000000001L230.4000000000001 25.6zM379.608 102.4H768V256H533.207L379.608 102.4z" />
    <glyph glyph-name="stup"
      unicode="&#xE02C;"
      horiz-adv-x="1024" d="M819.2 358.4V153.5999999999999H204.8000000000001V358.3999999999999H819.2zM102.4 460.8V51.1999999999999H921.6V460.8H102.4zM716.8 614.4V460.8H307.2V614.4H716.8zM204.8 716.8V358.4000000000001H819.2V716.8000000000001H204.8000000000001zM614.4 870.4V716.8H409.6V870.4H614.4zM307.2 972.8V614.4000000000001H716.8V972.8H307.2zM204.8 972.8V870.4H819.2V972.8H204.8000000000001zM102.4 716.8V614.4H921.6V716.8H102.4zM0 460.8V358.4H1024V460.8H0z" />
    <glyph glyph-name="utip"
      unicode="&#xE02D;"
      horiz-adv-x="1024" d="M921.6 921.6H819.2V102.4H921.6V921.6zM1024 1024V0H716.8V1024H1024zM716.8 921.6H102.4V102.4H716.8V921.6zM819.2 1024V0H0V1024H819.2zM358.4 819.2V716.8H204.8V819.1999999999999H358.4zM358.4 307.2000000000001V204.8000000000001H204.8V307.2000000000001H358.4zM614.4 819.2V716.8H460.8V819.1999999999999H614.4zM512 563.2V460.8H307.2V563.1999999999999H512zM614.4 307.2000000000001V204.8000000000001H460.8V307.2000000000001H614.4z" />
    <glyph glyph-name="x"
      unicode="&#xE02E;"
      horiz-adv-x="1024" d="M131.763 1023.948C130.667 1023.981 129.378 1024 128.085 1024C92.709 1024 60.685 1009.648 37.516 986.45L37.515 986.449C14.359 963.287 0.036 931.293 0.036 895.952S14.359 828.616 37.515 805.4549999999999L805.491 37.479C828.653 14.3230000000001 860.6469999999999 0 895.9879999999999 0S963.324 14.323 986.4849999999998 37.479V37.479C1009.6409999999998 60.6410000000001 1023.964 92.635 1023.964 127.976S1009.641 195.312 986.4849999999998 218.473L218.5089999999999 986.449C196.2209999999999 1008.77 165.7379999999999 1022.901 131.9569999999999 1023.943L131.7619999999999 1023.947zM899.74 1023.948C898.644 1023.981 897.355 1024 896.062 1024C860.686 1024 828.662 1009.648 805.493 986.45L37.5150000000001 218.4720000000001C14.3590000000001 195.3100000000001 0.0360000000001 163.3160000000002 0.0360000000001 127.9750000000001S14.3590000000001 60.6390000000001 37.5150000000001 37.4780000000002V37.4780000000002C60.6770000000001 14.3220000000002 92.6710000000001 -0.0009999999997 128.0120000000001 -0.0009999999997S195.3480000000001 14.3220000000002 218.5090000000001 37.4780000000003L986.4850000000002 805.4540000000003C1009.641 828.6160000000003 1023.9640000000002 860.6100000000004 1023.9640000000002 895.9510000000002S1009.6410000000002 963.2870000000001 986.4850000000002 986.4480000000004V986.4480000000004C964.1970000000002 1008.7690000000003 933.7140000000002 1022.9000000000004 899.9330000000001 1023.9420000000003L899.738 1023.9460000000003z" />
    <glyph glyph-name="zabor"
      unicode="&#xE02F;"
      horiz-adv-x="1024" d="M921.6 691.288L512 908.135L102.4 691.288V614.4H921.6V691.288zM512 1024L1024 752.941V512H0V752.941L512 1024zM819.2 512H204.8000000000001V102.4H819.2V512zM921.6 614.4V0H102.4V614.4H921.6zM870.4 358.4V256H102.4V358.4H870.4zM358.4 512H460.8V358.4H358.4V512zM563.2 256H665.6V102.4H563.2V256z" />
  </font>
</defs>
</svg>
